<svg width="31" height="36" viewBox="0 0 31 36" fill="none" xmlns="http://www.w3.org/2000/svg">
<path d="M14.5068 22.2597C15.9447 22.283 19.0733 22.3336 19.0954 20.3266C19.1173 18.2497 16.0072 18.3136 14.5459 18.3436C14.3955 18.3467 14.2626 18.3494 14.1523 18.3494V22.2557C14.2531 22.2557 14.3726 22.2576 14.5068 22.2597Z" fill="#009FE8"/>
<path d="M14.393 16.572C15.5519 16.6111 18.2803 16.7032 18.3029 14.8293C18.3247 12.9286 15.7335 12.9875 14.5111 13.0154C14.3845 13.0183 14.2725 13.0209 14.1797 13.0209V16.5654C14.2426 16.567 14.3141 16.5694 14.393 16.572Z" fill="#009FE8"/>
<path fill-rule="evenodd" clip-rule="evenodd" d="M30.8158 11.5258C30.8158 30.7676 15.4079 36 15.4079 36C15.4079 36 0 30.7676 0 11.5258V4.6055C0 3.858 0.578699 3.2311 1.3262 3.1829C4.1232 3.0623 10.7542 2.4836 15.4079 0C20.0616 2.4836 26.6926 3.0623 29.4896 3.1829C30.2371 3.2311 30.8158 3.858 30.8158 4.6055V11.5258ZM17.361 11.0194C19.6517 11.2364 21.4361 11.9598 21.6289 14.0576C21.7736 15.6008 21.1226 16.517 20.0857 16.9994C21.7736 17.4092 22.8105 18.4461 22.5934 20.6886C22.304 23.4856 20.2304 24.233 17.2405 24.3777V27.3195H15.4561V24.426C14.998 24.426 14.5157 24.426 14.0335 24.4019V27.3195H12.2732V24.3777C11.8634 24.3536 9.0422 24.3777 9.0422 24.3777L9.0663 22.2318H11.0677V12.852H8.8011V10.9953C8.8011 10.9953 11.984 10.9711 12.3697 10.9711L12.3456 8.0536H14.1299V10.9229H15.5767V8.0777H17.361V11.0194Z" fill="#009FE8"/>
</svg>
