<svg width="36" height="36" viewBox="0 0 36 36" fill="none" xmlns="http://www.w3.org/2000/svg">
<path d="M17.766 0H17.7659C7.95406 0 0 7.95406 0 17.7659V18.2341C0 28.0459 7.95406 36 17.7659 36H17.766C27.5778 36 35.5319 28.0459 35.5319 18.2341V17.7659C35.5319 7.95406 27.5778 0 17.766 0Z" fill="#0052FF"/>
<path d="M17.9615 11.2511C20.6923 11.2511 22.877 12.8895 23.6572 15.3863H29.1189C28.1046 10.0807 23.7352 6.4136 17.9615 6.4136C11.4856 6.4916 6.41409 11.4071 6.41409 18.0391C6.41409 24.671 11.4076 29.5865 18.0395 29.5865C23.6572 29.5865 28.1046 25.9974 29.1189 20.6138H23.6572C22.877 23.1105 20.6923 24.8271 18.0395 24.8271C14.2944 24.8271 11.6416 21.9402 11.6416 18.0391C11.6416 14.1379 14.2164 11.2511 17.9615 11.2511Z" fill="white"/>
</svg>
