<svg width="37" height="34" viewBox="0 0 37 34" fill="none" xmlns="http://www.w3.org/2000/svg">
<path d="M33.7987 1L20.3301 11.0033L22.8208 5.1015L33.7987 1Z" fill="#E2761B" stroke="#E2761B" stroke-linecap="round" stroke-linejoin="round"/>
<path d="M2.7012 1L16.0615 11.0981L13.6927 5.1015L2.7012 1Z" fill="#E4761B" stroke="#E4761B" stroke-linecap="round" stroke-linejoin="round"/>
<path d="M28.9504 24.1877L25.3633 29.6835L33.0384 31.7951L35.2448 24.3096L28.9504 24.1877Z" fill="#E4761B" stroke="#E4761B" stroke-linecap="round" stroke-linejoin="round"/>
<path d="M1.28119 24.3096L3.47409 31.7951L11.1492 29.6835L7.56209 24.1877L1.28119 24.3096Z" fill="#E4761B" stroke="#E4761B" stroke-linecap="round" stroke-linejoin="round"/>
<path d="M10.7169 14.9018L8.57809 18.1369L16.1991 18.4754L15.9283 10.2859L10.7169 14.9018Z" fill="#E4761B" stroke="#E4761B" stroke-linecap="round" stroke-linejoin="round"/>
<path d="M25.7833 14.9018L20.5041 10.1912L20.3281 18.4754L27.9355 18.137L25.7833 14.9018Z" fill="#E4761B" stroke="#E4761B" stroke-linecap="round" stroke-linejoin="round"/>
<path d="M11.1484 29.6835L15.7237 27.45L11.7711 24.3638L11.1484 29.6835Z" fill="#E4761B" stroke="#E4761B" stroke-linecap="round" stroke-linejoin="round"/>
<path d="M20.7734 27.45L25.3622 29.6835L24.726 24.3638L20.7734 27.45Z" fill="#E4761B" stroke="#E4761B" stroke-linecap="round" stroke-linejoin="round"/>
<path d="M25.3642 29.6832L20.7754 27.4497L21.1409 30.4412L21.1003 31.7001L25.3642 29.6832Z" fill="#D7C1B3" stroke="#D7C1B3" stroke-linecap="round" stroke-linejoin="round"/>
<path d="M11.1523 29.6832L15.4163 31.7001L15.3892 30.4412L15.7276 27.4497L11.1523 29.6832Z" fill="#D7C1B3" stroke="#D7C1B3" stroke-linecap="round" stroke-linejoin="round"/>
<path d="M15.4852 22.3875L11.668 21.264L14.3617 20.0322L15.4852 22.3875Z" fill="#233447" stroke="#233447" stroke-linecap="round" stroke-linejoin="round"/>
<path d="M21.0195 22.3875L22.143 20.0322L24.8503 21.264L21.0195 22.3875Z" fill="#233447" stroke="#233447" stroke-linecap="round" stroke-linejoin="round"/>
<path d="M11.1535 29.6837L11.8033 24.188L7.56641 24.3098L11.1535 29.6837Z" fill="#CD6116" stroke="#CD6116" stroke-linecap="round" stroke-linejoin="round"/>
<path d="M24.7168 24.188L25.3665 29.6837L28.9537 24.3098L24.7168 24.188Z" fill="#CD6116" stroke="#CD6116" stroke-linecap="round" stroke-linejoin="round"/>
<path d="M27.9375 18.1372L20.3301 18.4756L21.034 22.3876L22.1575 20.0323L24.8647 21.2641L27.9375 18.1372Z" fill="#CD6116" stroke="#CD6116" stroke-linecap="round" stroke-linejoin="round"/>
<path d="M11.6683 21.2641L14.3756 20.0323L15.4855 22.3876L16.203 18.4756L8.582 18.1372L11.6683 21.2641Z" fill="#CD6116" stroke="#CD6116" stroke-linecap="round" stroke-linejoin="round"/>
<path d="M8.582 18.1372L11.7766 24.3639L11.6683 21.2641L8.582 18.1372Z" fill="#E4751F" stroke="#E4751F" stroke-linecap="round" stroke-linejoin="round"/>
<path d="M24.8678 21.2641L24.7324 24.3639L27.9405 18.1372L24.8678 21.2641Z" fill="#E4751F" stroke="#E4751F" stroke-linecap="round" stroke-linejoin="round"/>
<path d="M16.2018 18.4756L15.4844 22.3876L16.3778 27.0035L16.5808 20.9257L16.2018 18.4756Z" fill="#E4751F" stroke="#E4751F" stroke-linecap="round" stroke-linejoin="round"/>
<path d="M20.3303 18.4756L19.9648 20.9121L20.1273 27.0035L21.0342 22.3876L20.3303 18.4756Z" fill="#E4751F" stroke="#E4751F" stroke-linecap="round" stroke-linejoin="round"/>
<path d="M21.0339 22.3874L20.127 27.0033L20.7767 27.45L24.7293 24.3637L24.8647 21.2639L21.0339 22.3874Z" fill="#F6851B" stroke="#F6851B" stroke-linecap="round" stroke-linejoin="round"/>
<path d="M11.668 21.2639L11.7763 24.3637L15.7289 27.45L16.3786 27.0033L15.4852 22.3874L11.668 21.2639Z" fill="#F6851B" stroke="#F6851B" stroke-linecap="round" stroke-linejoin="round"/>
<path d="M21.1015 31.7005L21.1421 30.4416L20.8037 30.1438H15.7005L15.3892 30.4416L15.4163 31.7005L11.1523 29.6836L12.6413 30.9019L15.6599 33H20.8443L23.8765 30.9019L25.3655 29.6836L21.1015 31.7005Z" fill="#C0AD9E" stroke="#C0AD9E" stroke-linecap="round" stroke-linejoin="round"/>
<path d="M20.7761 27.4501L20.1264 27.0034H16.3768L15.7271 27.4501L15.3887 30.4416L15.7 30.1438H20.8032L21.1416 30.4416L20.7761 27.4501Z" fill="#161616" stroke="#161616" stroke-linecap="round" stroke-linejoin="round"/>
<path d="M34.3678 11.6531L35.5184 6.1303L33.7993 1L20.7773 10.6649L25.7858 14.9018L32.8653 16.9728L34.4355 15.1454L33.7587 14.6581L34.8416 13.67L34.0023 13.0202L35.0852 12.1945L34.3678 11.6531Z" fill="#763D16" stroke="#763D16" stroke-linecap="round" stroke-linejoin="round"/>
<path d="M1 6.1303L2.1506 11.6531L1.4196 12.1945L2.5025 13.0202L1.6768 13.67L2.7597 14.6581L2.0829 15.1454L3.6396 16.9728L10.7191 14.9018L15.7275 10.6649L2.7056 1L1 6.1303Z" fill="#763D16" stroke="#763D16" stroke-linecap="round" stroke-linejoin="round"/>
<path d="M32.8638 16.9732L25.7843 14.9021L27.9366 18.1373L24.7285 24.364L28.9518 24.3098H35.2462L32.8638 16.9732Z" fill="#F6851B" stroke="#F6851B" stroke-linecap="round" stroke-linejoin="round"/>
<path d="M10.72 14.9021L3.64052 16.9732L1.28522 24.3098H7.56602L11.7758 24.364L8.58122 18.1373L10.72 14.9021Z" fill="#F6851B" stroke="#F6851B" stroke-linecap="round" stroke-linejoin="round"/>
<path d="M20.3301 18.4757L20.7768 10.6652L22.8343 5.10181H13.6973L15.7277 10.6652L16.2015 18.4757L16.3639 20.9393L16.3775 27.0036H20.127L20.1541 20.9393L20.3301 18.4757Z" fill="#F6851B" stroke="#F6851B" stroke-linecap="round" stroke-linejoin="round"/>
</svg>
