<svg width="36" height="36" viewBox="0 0 36 36" fill="none" xmlns="http://www.w3.org/2000/svg">
<path fill-rule="evenodd" clip-rule="evenodd" d="M23.9126 0H12.0874C5.4117 0 0 5.4117 0 12.0874V23.9126C0 30.5883 5.4117 36 12.0874 36H23.9126C30.5883 36 36 30.5883 36 23.9126V12.0874C36 5.4117 30.5883 0 23.9126 0ZM17.1669 6.6811C17.8234 6.1328 18.778 6.1328 19.4344 6.6811C22.1354 8.9369 25.2168 8.922 26.4829 8.9159H26.4831L26.4958 8.9158C26.552 8.9155 26.6046 8.9153 26.6533 8.9153C27.127 8.9153 27.5808 9.1053 27.9133 9.4428C28.2457 9.7802 28.4288 10.2369 28.4217 10.7106C28.3611 14.7333 28.1998 17.6393 27.8765 19.7895C27.5535 21.9374 27.0462 23.5033 26.1721 24.7181C25.2889 25.9456 24.1579 26.6279 23.0713 27.2284C22.8789 27.3347 22.6847 27.4401 22.4878 27.5469C21.5461 28.0579 20.5384 28.6047 19.3316 29.4704C18.7154 29.9124 17.886 29.9124 17.2698 29.4704C16.0641 28.6054 15.0577 28.0589 14.1175 27.5484L14.1125 27.5456C13.9163 27.439 13.723 27.334 13.5313 27.2281C12.4454 26.6273 11.3157 25.9446 10.4341 24.7165C9.5619 23.5017 9.0565 21.9358 8.7348 19.7885C8.4127 17.6389 8.2521 14.7331 8.1914 10.7106C8.1842 10.2369 8.3674 9.7802 8.6998 9.4428C9.0322 9.1053 9.4861 8.9153 9.9599 8.9153C10.008 8.9153 10.0599 8.9155 10.1155 8.9158L10.1284 8.9159C11.3841 8.922 14.4658 8.9371 17.1669 6.6811ZM18.2978 10.2405C15.8978 11.8285 13.4288 12.2827 11.7603 12.4088C11.8376 15.4646 11.9886 17.6528 12.2301 19.2642C12.5157 21.1706 12.9052 22.0971 13.3046 22.6535C13.6946 23.1966 14.2131 23.5641 15.2408 24.1327C15.4044 24.2232 15.5789 24.3178 15.7637 24.4179L15.7648 24.4185C16.4711 24.8014 17.3273 25.2656 18.2979 25.8936C19.2704 25.2644 20.1285 24.7997 20.8362 24.4163L20.8365 24.4162L20.8376 24.4156L20.8584 24.4043C21.0343 24.309 21.2008 24.2188 21.3574 24.1323C22.3866 23.5635 22.9068 23.1957 23.298 22.6519C23.6985 22.0955 24.0891 21.1691 24.3756 19.2634C24.6179 17.6524 24.7696 15.4646 24.847 12.4094C23.175 12.2841 20.7016 11.8309 18.2978 10.2405Z" fill="#009FE8"/>
</svg>
