<svg width="39" height="39" viewBox="0 0 39 39" fill="none" xmlns="http://www.w3.org/2000/svg">
<path fill-rule="evenodd" clip-rule="evenodd" d="M19.2523 36.6808C28.7805 36.6808 36.5046 28.9567 36.5046 19.4285C36.5046 9.90033 28.7805 2.17621 19.2523 2.17621C9.72412 2.17621 2 9.90033 2 19.4285C2 28.9567 9.72412 36.6808 19.2523 36.6808ZM19.2523 38.6808C29.8851 38.6808 38.5046 30.0613 38.5046 19.4285C38.5046 8.79576 29.8851 0.176208 19.2523 0.176208C8.61955 0.176208 0 8.79576 0 19.4285C0 30.0613 8.61955 38.6808 19.2523 38.6808Z" fill="#1F2128"/>
<path fill-rule="evenodd" clip-rule="evenodd" d="M19.2523 36.6808C28.7805 36.6808 36.5046 28.9567 36.5046 19.4285C36.5046 9.90033 28.7805 2.17621 19.2523 2.17621C9.72412 2.17621 2 9.90033 2 19.4285C2 28.9567 9.72412 36.6808 19.2523 36.6808ZM19.2523 38.6808C29.8851 38.6808 38.5046 30.0613 38.5046 19.4285C38.5046 8.79576 29.8851 0.176208 19.2523 0.176208C8.61955 0.176208 0 8.79576 0 19.4285C0 30.0613 8.61955 38.6808 19.2523 38.6808Z" fill="white" fill-opacity="0.45"/>
</svg>
