<svg width="94" height="94" viewBox="0 0 94 94" fill="none" xmlns="http://www.w3.org/2000/svg">
<path d="M47 0L51.5846 23.9515L64.9861 3.57766L60.0559 27.4605L80.234 13.766L66.5395 33.9441L90.4223 29.0139L70.0485 42.4154L94 47L70.0485 51.5846L90.4223 64.9861L66.5395 60.0559L80.234 80.234L60.0559 66.5395L64.9861 90.4223L51.5846 70.0485L47 94L42.4154 70.0485L29.0139 90.4223L33.9441 66.5395L13.766 80.234L27.4605 60.0559L3.57766 64.9861L23.9515 51.5846L0 47L23.9515 42.4154L3.57766 29.0139L27.4605 33.9441L13.766 13.766L33.9441 27.4605L29.0139 3.57766L42.4154 23.9515L47 0Z" fill="#CFD2DD"/>
</svg>
