<svg width="139" height="39" viewBox="0 0 139 39" fill="none" xmlns="http://www.w3.org/2000/svg">
<path d="M24.4353 37.88V11.48H0.483307V37.88H7.34731V18.056H17.5713V37.88H24.4353Z" fill="url(#paint0_linear_112_287)"/>
<path d="M41.2777 10.904C33.5017 10.904 27.6457 16.856 27.6457 24.728C27.6457 32.552 33.4537 38.504 41.4697 38.504C47.9017 38.504 53.6137 34.664 54.7177 28.184H47.6137C46.9897 31.064 44.4457 32.648 41.5177 32.648C37.6777 32.648 34.8937 30.056 34.6537 25.976H54.7657C54.8617 25.16 54.9577 24.104 54.7657 22.712C53.9497 15.512 48.0937 10.904 41.2777 10.904ZM41.3737 16.568C44.1577 16.568 46.9417 18.152 47.5657 21.416H35.1337C35.9497 18.44 38.3017 16.568 41.3737 16.568Z" fill="url(#paint1_linear_112_287)"/>
<path d="M74.0369 18.056V11.48H57.9089V37.88H64.7729V18.056H74.0369Z" fill="url(#paint2_linear_112_287)"/>
<path d="M83.1498 21.944V0.920044H76.2858V37.88H83.1498V26.888L92.4138 37.88H101.102L89.5818 24.2L100.19 11.48H91.5978L83.1498 21.944Z" fill="url(#paint3_linear_112_287)"/>
<path d="M113.943 10.904C106.359 10.904 100.167 16.76 100.167 24.68C100.167 32.6 106.263 38.504 113.943 38.504C121.623 38.504 127.671 32.648 127.671 24.728C127.671 16.76 121.527 10.904 113.943 10.904ZM113.943 17.432C117.783 17.432 120.759 20.408 120.759 24.728C120.759 29.048 117.783 31.976 113.943 31.976C110.151 31.976 107.127 29.048 107.127 24.728C107.127 20.36 110.103 17.432 113.943 17.432Z" fill="url(#paint4_linear_112_287)"/>
<path d="M134.245 30.344C131.797 30.344 129.973 32.072 129.973 34.424C129.973 36.776 131.797 38.504 134.245 38.504C136.693 38.504 138.517 36.776 138.517 34.424C138.517 32.072 136.693 30.344 134.245 30.344Z" fill="url(#paint5_linear_112_287)"/>
<defs>
<linearGradient id="paint0_linear_112_287" x1="6.69481" y1="38.739" x2="25.2541" y2="-27.747" gradientUnits="userSpaceOnUse">
<stop stop-color="#3754FB"/>
<stop offset="1" stop-color="#FC01FF"/>
</linearGradient>
<linearGradient id="paint1_linear_112_287" x1="6.69481" y1="38.739" x2="25.2541" y2="-27.747" gradientUnits="userSpaceOnUse">
<stop stop-color="#3754FB"/>
<stop offset="1" stop-color="#FC01FF"/>
</linearGradient>
<linearGradient id="paint2_linear_112_287" x1="6.69481" y1="38.739" x2="25.2541" y2="-27.747" gradientUnits="userSpaceOnUse">
<stop stop-color="#3754FB"/>
<stop offset="1" stop-color="#FC01FF"/>
</linearGradient>
<linearGradient id="paint3_linear_112_287" x1="6.69481" y1="38.739" x2="25.2541" y2="-27.747" gradientUnits="userSpaceOnUse">
<stop stop-color="#3754FB"/>
<stop offset="1" stop-color="#FC01FF"/>
</linearGradient>
<linearGradient id="paint4_linear_112_287" x1="6.69481" y1="38.739" x2="25.2541" y2="-27.747" gradientUnits="userSpaceOnUse">
<stop stop-color="#3754FB"/>
<stop offset="1" stop-color="#FC01FF"/>
</linearGradient>
<linearGradient id="paint5_linear_112_287" x1="6.69481" y1="38.739" x2="25.2541" y2="-27.747" gradientUnits="userSpaceOnUse">
<stop stop-color="#3754FB"/>
<stop offset="1" stop-color="#FC01FF"/>
</linearGradient>
</defs>
</svg>
