<svg width="186" height="186" viewBox="0 0 186 186" fill="none" xmlns="http://www.w3.org/2000/svg">
<path d="M136.029 16.6624C148.445 25.5111 156.115 38.8896 165.366 51.7413C174.74 64.5931 185.696 77.0234 184.965 89.1378C184.357 101.252 172.062 112.945 162.81 126.007C153.558 139.07 147.472 153.291 135.663 164.879C123.977 176.361 106.569 184.999 89.1614 184.999C71.7536 185.104 54.3457 176.361 38.0335 167.196C21.5995 157.926 6.26113 148.235 2.24394 135.172C-1.89499 122.215 5.28727 105.782 9.30446 91.4553C13.4434 77.2341 14.539 64.9091 17.4606 50.2665C20.5039 35.624 25.6167 18.6639 37.9117 9.81517C50.0851 0.861095 69.6841 0.0183531 88.0658 1.70383C106.326 3.49464 123.612 7.81367 136.029 16.6624Z" stroke="#fff" stroke-miterlimit="3.97115" stroke-linecap="round" stroke-linejoin="round" stroke-dasharray="4 4"/>
</svg>
